<svg xmlns="http://www.w3.org/2000/svg" viewBox="0 0 465.3 408.5"><style>.st0{fill:#62e3ff}.st1{fill:#43afff}.st3{fill:#fff}.st4{fill:#b1423a}.st5{fill:#b0f5df}</style><g id="Layer_4"><path class="st0" d="M364.3 363.2c0 25-57.5 45.3-129.6 45.3s-130.6-20.3-130.6-45.3c0-25 58.5-45.3 130.6-45.3s129.6 20.3 129.6 45.3z"/><path class="st1" d="M258.5 407.7v-23.9c0-15.3 10.8-20 10.8-25.7 0-9.8-19.6.9-25.7 7-9.2 9.3-8.2 12.9-7.9 28.4.1 4 .1 9.3.1 14.9 7.7 0 15.3-.2 22.7-.7zM198.6 406.7c0-13.2-.1-30.9-.1-37.9 0-13.4-19-21-28.1-21-4.6 0-10.4.2-10.4 2.7 0 6.2 17.4 9.8 17.4 22.7 0 7.1-.1 21.3-.2 30.7 6.8 1.1 14 2.1 21.4 2.8z"/><path class="st1" d="M287.7 372.7c.2-12.2 18-18 17.3-21.9-.7-3.9-14.9-3.3-21.6-1-18.9 6.6-17 22.3-17 22.3l-.5 35c7.7-.7 15-1.5 22.1-2.6-.1-21.3-.4-25.4-.3-31.8zM226 372.6c-7.6-16.8-30.4-22.5-30.4-14.9 0 5.1 4.6 3.5 7.8 15 1.3 4.6 1.9 19.9 2.3 34.6 7.8.6 15.9 1 24.2 1.1-.3-14.5-1.2-29.8-3.9-35.8z"/><path class="st0" d="M85.6 247.5c-8.1 0 0-12.6 0-18.3.1 5.9 8 18.3 0 18.3z"/></g><g id="mainBody"><g id="XMLID_1_"><path d="M283.9 106c40.3 0 50.5 28.5 50.5 50.5 0 30-15.1 51.7-52.6 57.3-4.6.7-9.6 1.1-14.9 1.3-22.7.8-45.3.7-64 0-2.7-.1-5.4-.3-8-.5-39.2-3.4-67-21.2-67-60.8 0-15 10.2-47.8 51.2-47.8 4.1 0 30.6 2.5 56.2 2.5 22.7 0 45.7-2.5 48.6-2.5z" fill="#ffc09f"/><path d="M463.9 171.5c.8.2 1.4.9 1.2 1.8-.1.7-.8 1.2-1.5 1.2h-.3c-20.5-3.8-50.2-7.9-101-7.5-.9 3-1.9 5.8-3 8.4 17.3.6 64.8 2.4 103.6 14.3.8.2 1.2 1.1 1 1.9-.2.6-.8 1.1-1.4 1.1-.1 0-.3 0-.4-.1-39.3-12-87.8-13.7-104-14.2-12.5 27.5-36.8 39.6-74.8 45.3l-1.4-9.9c37.6-5.6 52.6-27.4 52.6-57.3 0-22-10.2-50.5-50.5-50.5-2.9 0-25.9 2.5-48.7 2.5-25.6 0-52.1-2.5-56.2-2.5-41 0-51.2 32.8-51.2 47.8 0 39.7 27.8 57.4 67 60.8l-1.1 11c-46.6-4.7-74.3-21.1-88.7-47.3-49.5 1.2-77.7 8.2-98.3 13.4-1.5.4-3 .7-4.4 1.1H2c-.7 0-1.3-.5-1.5-1.1-.2-.8.3-1.6 1.1-1.8 1.4-.4 2.9-.7 4.4-1.1 20.6-5.1 48.5-12.1 97.4-13.4-1.3-2.7-2.6-5.5-3.7-8.4-19-.2-77.7 2.5-97.8 7.5h-.4c-.7 0-1.3-.5-1.5-1.1-.2-.8.3-1.6 1.1-1.8 19.9-4.9 77.2-7.6 97.4-7.6-4.6-13.4-6.6-28.8-6.6-46 0-30.5 9.5-42 22.3-58.2C104.8 25 118 1.2 118 1.2s20.5-4.3 59.3 23.5c21-9 77-9.8 103.5-2 16.3-10.8 46-26 58-21.7C342 6.2 349 21.5 343 55c4.1 7.4 25.3 23 25.3 67.3-.3 16.3-2 30.1-5.2 41.7 50.6-.5 80.3 3.7 100.8 7.5z"/><path d="M287.7 323.2c.2 12.2 18 18 17.3 21.9-.7 3.9-14.9 3.3-21.6 1-18.9-6.6-17-22.3-17-22.3l-.6-43.1s1.3-23.2-7.3-23.2v70.6c0 15.3 10.8 20 10.8 25.7 0 9.8-19.6-.9-25.7-7-9.2-9.3-8.2-28.9-7.9-44.4.2-15-.1-47.8-.1-47.8l-6.3.1s2.6 71.6-3.3 84.6c-7.6 16.8-30.5 22.5-30.5 14.9 0-5.1 5.6-3.5 8.8-15 2.7-9.8 1.8-82.8 1.8-82.8s-7.3 4.3-7.3 18c0 6.3-.2 42-.2 52.6 0 13.4-19 21-28.1 21-4.6 0-10.4-.2-10.4-2.7 0-6.2 17.4-9.8 17.4-22.7 0-11.2-.2-39.9-.2-39.9s-8.8 1.5-21.3 1.5c-31.5 0-41.5-20.1-46.2-31.3-6.2-14.7-14.2-21.5-22.7-27-5.2-3.4-6.4-7.4-.4-8.5 27.9-5.3 35 31.6 53.6 37.5 13.3 4.2 30.4 2.4 38.9-3.1 1.1-11.3 9.2-21 16-26.1-.4 0-.9-.1-1.3-.1l1.1-11c2.6.2 5.3.4 8 .5 18.7.7 41.3.8 64 0 5.3-.2 10.3-.6 14.9-1.3l1.4 9.9c-4.7.7-9.5 1.3-14.6 1.8 15 9.5 19.3 21.5 19.3 53.7s-.4 36.6-.3 44z"/></g></g><g id="Layer_6"><path class="st3" d="M196.9 156.2c0-17.6-9.6-31.9-21.4-31.9-11.8 0-21.4 14.3-21.4 31.9s9.6 29.9 21.4 29.9c11.8 0 21.4-12.3 21.4-29.9zM312.7 156.2c0-17.6-9.6-31.9-21.4-31.9s-21.4 14.3-21.4 31.9 9.6 29.9 21.4 29.9 21.4-12.3 21.4-29.9z"/><path class="st4" d="M231.8 205.3c-7.7 0-13.3-6.6-13.3-10 0-.8.7-1.5 1.5-1.5s1.5.7 1.5 1.5c0 1.7 4.3 7 10.3 7 5.2 0 9.1-3.7 9.1-7 0-.8.7-1.5 1.5-1.5s1.5.7 1.5 1.5c0 4.7-4.9 10-12.1 10z"/><circle class="st4" cx="231.7" cy="182.9" r="5.2"/><ellipse class="st4" cx="175.5" cy="156.2" rx="14.1" ry="20.7"/><ellipse class="st4" cx="291.3" cy="156.2" rx="14.1" ry="20.7"/></g><g id="Suckers"><ellipse class="st5" cx="95.8" cy="221.3" rx="3.4" ry="2.3"/><ellipse class="st5" cx="106.3" cy="227" rx="3.4" ry="2.3"/><ellipse class="st5" cx="112.7" cy="234.6" rx="3.4" ry="2.3"/><ellipse class="st5" cx="118.3" cy="243.2" rx="3.4" ry="2.3"/><ellipse class="st5" cx="124.7" cy="251.3" rx="3.4" ry="2.3"/><ellipse class="st5" cx="133.4" cy="258.3" rx="3.4" ry="2.3"/><ellipse class="st5" cx="145.5" cy="262.8" rx="3.4" ry="2.3"/><ellipse class="st5" cx="157.7" cy="262.8" rx="3.4" ry="2.3"/><ellipse class="st5" cx="169.9" cy="260.8" rx="3.4" ry="2.3"/></g></svg>