<?xml version="1.0" encoding="utf-8"?>
<!-- Generator: Adobe Illustrator 23.1.0, SVG Export Plug-In . SVG Version: 6.00 Build 0)  -->
<svg version="1.1" id="Слой_1" xmlns="http://www.w3.org/2000/svg" xmlns:xlink="http://www.w3.org/1999/xlink" x="0px" y="0px"
	 viewBox="0 0 465.3 408.5" style="enable-background:new 0 0 465.3 408.5;" xml:space="preserve">
<style type="text/css">
	.st0{fill:#3F3F3F;}
	.st1{fill:#B7ABA5;}
	.st2{fill:#666666;}
	.st3{fill:#FFFFFF;}
</style>
<g id="Layer_4">
	<path class="st0" d="M364.3,363.2c0,25-57.5,45.3-129.6,45.3s-130.6-20.3-130.6-45.3s58.5-45.3,130.6-45.3S364.3,338.2,364.3,363.2
		z"/>
	<path class="st0" d="M258.5,407.7v-23.9c0-15.3,10.8-20,10.8-25.7c0-9.8-19.6,0.9-25.7,7c-9.2,9.3-8.2,12.9-7.9,28.4
		c0.1,4,0.1,9.3,0.1,14.9C243.5,408.4,251.1,408.2,258.5,407.7L258.5,407.7z M198.6,406.7c0-13.2-0.1-30.9-0.1-37.9
		c0-13.4-19-21-28.1-21c-4.6,0-10.4,0.2-10.4,2.7c0,6.2,17.4,9.8,17.4,22.7c0,7.1-0.1,21.3-0.2,30.7C184,405,191.2,406,198.6,406.7
		L198.6,406.7z"/>
	<path class="st0" d="M287.7,372.7c0.2-12.2,18-18,17.3-21.9s-14.9-3.3-21.6-1c-18.9,6.6-17,22.3-17,22.3l-0.5,35
		c7.7-0.7,15-1.5,22.1-2.6C287.9,383.2,287.6,379.1,287.7,372.7z M226,372.6c-7.6-16.8-30.4-22.5-30.4-14.9c0,5.1,4.6,3.5,7.8,15
		c1.3,4.6,1.9,19.9,2.3,34.6c7.8,0.6,15.9,1,24.2,1.1C229.6,393.9,228.7,378.6,226,372.6L226,372.6z"/>
	<path d="M85.6,247.5c-8.1,0,0-12.6,0-18.3C85.7,235.1,93.6,247.5,85.6,247.5z"/>
</g>
<g id="mainBody">
	<g id="XMLID_1_">
		<path class="st1" d="M283.9,106c40.3,0,50.5,28.5,50.5,50.5c0,30-15.1,51.7-52.6,57.3c-4.6,0.7-9.6,1.1-14.9,1.3
			c-22.7,0.8-45.3,0.7-64,0c-2.7-0.1-5.4-0.3-8-0.5c-39.2-3.4-67-21.2-67-60.8c0-15,10.2-47.8,51.2-47.8c4.1,0,30.6,2.5,56.2,2.5
			C258,108.5,281,106,283.9,106z"/>
		<path class="st2" d="M463.9,171.5c0.8,0.2,1.4,0.9,1.2,1.8c-0.1,0.7-0.8,1.2-1.5,1.2h-0.3c-20.5-3.8-50.2-7.9-101-7.5
			c-0.9,3-1.9,5.8-3,8.4c17.3,0.6,64.8,2.4,103.6,14.3c0.8,0.2,1.2,1.1,1,1.9c-0.2,0.6-0.8,1.1-1.4,1.1c-0.1,0-0.3,0-0.4-0.1
			c-39.3-12-87.8-13.7-104-14.2c-12.5,27.5-36.8,39.6-74.8,45.3l-1.4-9.9c37.6-5.6,52.6-27.4,52.6-57.3c0-22-10.2-50.5-50.5-50.5
			c-2.9,0-25.9,2.5-48.7,2.5c-25.6,0-52.1-2.5-56.2-2.5c-41,0-51.2,32.8-51.2,47.8c0,39.7,27.8,57.4,67,60.8l-1.1,11
			c-46.6-4.7-74.3-21.1-88.7-47.3c-49.5,1.2-77.7,8.2-98.3,13.4c-1.5,0.4-3,0.7-4.4,1.1H2c-0.7,0-1.3-0.5-1.5-1.1
			c-0.2-0.8,0.3-1.6,1.1-1.8c1.4-0.4,2.9-0.7,4.4-1.1c20.6-5.1,48.5-12.1,97.4-13.4c-1.3-2.7-2.6-5.5-3.7-8.4
			c-19-0.2-77.7,2.5-97.8,7.5H1.5c-0.7,0-1.3-0.5-1.5-1.1c-0.2-0.8,0.3-1.6,1.1-1.8c19.9-4.9,77.2-7.6,97.4-7.6
			c-4.6-13.4-6.6-28.8-6.6-46c0-30.5,9.5-42,22.3-58.2C104.8,25,118,1.2,118,1.2s20.5-4.3,59.3,23.5c21-9,77-9.8,103.5-2
			c16.3-10.8,46-26,58-21.7C342,6.2,349,21.5,343,55c4.1,7.4,25.3,23,25.3,67.3c-0.3,16.3-2,30.1-5.2,41.7
			C413.7,163.5,443.4,167.7,463.9,171.5L463.9,171.5z"/>
		<path class="st2" d="M287.7,323.2c0.2,12.2,18,18,17.3,21.9s-14.9,3.3-21.6,1c-18.9-6.6-17-22.3-17-22.3l-0.6-43.1
			c0,0,1.3-23.2-7.3-23.2v70.6c0,15.3,10.8,20,10.8,25.7c0,9.8-19.6-0.9-25.7-7c-9.2-9.3-8.2-28.9-7.9-44.4
			c0.2-15-0.1-47.8-0.1-47.8l-6.3,0.1c0,0,2.6,71.6-3.3,84.6c-7.6,16.8-30.5,22.5-30.5,14.9c0-5.1,5.6-3.5,8.8-15
			c2.7-9.8,1.8-82.8,1.8-82.8s-7.3,4.3-7.3,18c0,6.3-0.2,42-0.2,52.6c0,13.4-19,21-28.1,21c-4.6,0-10.4-0.2-10.4-2.7
			c0-6.2,17.4-9.8,17.4-22.7c0-11.2-0.2-39.9-0.2-39.9s-8.8,1.5-21.3,1.5c-31.5,0-41.5-20.1-46.2-31.3c-6.2-14.7-14.2-21.5-22.7-27
			c-5.2-3.4-6.4-7.4-0.4-8.5c27.9-5.3,35,31.6,53.6,37.5c13.3,4.2,30.4,2.4,38.9-3.1c1.1-11.3,9.2-21,16-26.1
			c-0.4,0-0.9-0.1-1.3-0.1l1.1-11c2.6,0.2,5.3,0.4,8,0.5c18.7,0.7,41.3,0.8,64,0c5.3-0.2,10.3-0.6,14.9-1.3l1.4,9.9
			c-4.7,0.7-9.5,1.3-14.6,1.8c15,9.5,19.3,21.5,19.3,53.7S287.6,315.8,287.7,323.2L287.7,323.2z"/>
	</g>
</g>
<g id="Layer_6">
	<path class="st3" d="M196.9,156.2c0-17.6-9.6-31.9-21.4-31.9c-11.8,0-21.4,14.3-21.4,31.9s9.6,29.9,21.4,29.9
		C187.3,186.1,196.9,173.8,196.9,156.2z M312.7,156.2c0-17.6-9.6-31.9-21.4-31.9s-21.4,14.3-21.4,31.9s9.6,29.9,21.4,29.9
		S312.7,173.8,312.7,156.2z"/>
	<path d="M231.8,205.3c-7.7,0-13.3-6.6-13.3-10c0-0.8,0.7-1.5,1.5-1.5s1.5,0.7,1.5,1.5c0,1.7,4.3,7,10.3,7c5.2,0,9.1-3.7,9.1-7
		c0-0.8,0.7-1.5,1.5-1.5s1.5,0.7,1.5,1.5C243.9,200,239,205.3,231.8,205.3z"/>
	<circle cx="231.7" cy="182.9" r="5.2"/>
	<ellipse cx="175.5" cy="156.2" rx="14.1" ry="20.7"/>
	<ellipse cx="291.3" cy="156.2" rx="14.1" ry="20.7"/>
</g>
<g id="Suckers">
	<ellipse cx="95.8" cy="221.3" rx="3.4" ry="2.3"/>
	<ellipse cx="106.3" cy="227" rx="3.4" ry="2.3"/>
	<ellipse cx="112.7" cy="234.6" rx="3.4" ry="2.3"/>
	<ellipse cx="118.3" cy="243.2" rx="3.4" ry="2.3"/>
	<ellipse cx="124.7" cy="251.3" rx="3.4" ry="2.3"/>
	<ellipse cx="133.4" cy="258.3" rx="3.4" ry="2.3"/>
	<ellipse cx="145.5" cy="262.8" rx="3.4" ry="2.3"/>
	<ellipse cx="157.7" cy="262.8" rx="3.4" ry="2.3"/>
	<ellipse cx="169.9" cy="260.8" rx="3.4" ry="2.3"/>
</g>
</svg>
