<?xml version="1.0" encoding="utf-8"?>
<!-- Generator: Adobe Illustrator 23.1.0, SVG Export Plug-In . SVG Version: 6.00 Build 0)  -->
<svg version="1.1" id="Plan_1" xmlns="http://www.w3.org/2000/svg" xmlns:xlink="http://www.w3.org/1999/xlink" x="0px" y="0px"
	 viewBox="0 0 311.4 226.8" style="enable-background:new 0 0 311.4 226.8;" xml:space="preserve">
<style type="text/css">
	.st0{fill-rule:evenodd;clip-rule:evenodd;}
	.st1{fill-rule:evenodd;clip-rule:evenodd;fill:#EEEFEF;}
	.st2{fill-rule:evenodd;clip-rule:evenodd;fill:#B4A4A3;}
	.st3{fill-rule:evenodd;clip-rule:evenodd;fill:#CCCFCF;}
	.st4{fill-rule:evenodd;clip-rule:evenodd;fill:#E0E2E3;}
	.st5{fill-rule:evenodd;clip-rule:evenodd;fill:#E4E4E4;}
	.st6{fill-rule:evenodd;clip-rule:evenodd;fill:#F3F3F3;}
	.st7{fill-rule:evenodd;clip-rule:evenodd;fill:#020202;}
</style>
<g>
	<path class="st0" d="M34.5,44.8v182H20.2C9.1,226.8,0,217.7,0,206.6V18.8L34.5,44.8z"/>
	<path class="st0" d="M277,44.8v182h14.3c11.1,0,20.2-9.1,20.2-20.2V18.8L277,44.8z"/>
	<polygon class="st1" points="185.8,226.8 35.1,226.8 34.5,226.8 124.8,161 34.5,226.8 124.8,161 	"/>
	<polygon class="st2" points="34.5,50.1 155.7,134.1 277,50.1 277,51.2 155.7,138.5 34.5,51.2 	"/>
	<polygon class="st3" points="155.7,138.5 34.9,51.5 34.5,51.2 34.5,63.6 34.9,64.1 124.8,161 	"/>
	<polygon class="st4" points="34.5,226.8 124.8,161 34.5,63.6 	"/>
	<polygon class="st5" points="185.8,226.8 277,226.8 277,51.2 155.7,138.5 124.8,161 	"/>
	<polygon class="st6" points="16.8,0 295.4,0 155.7,92.1 	"/>
	<path class="st7" d="M27,3l128.7,89.1L284.4,3c7.8-5.4,18.6-3.4,24,4.4l0,0c2.2,3.2,3.2,6.8,3,10.4l0,0v8.6c-2.4,1.8-5,3.3-7.4,5
		L155.7,134.1L7.4,31.4c-2.4-1.7-5-3.2-7.4-5v-8.6l0,0c-0.1-3.6,0.8-7.3,3-10.4l0,0C8.4-0.4,19.2-2.3,27,3z"/>
	<polygon class="st0" points="34.5,50.1 0,26.4 34.5,63.6 	"/>
	<polygon class="st0" points="277,50.1 311.4,26.4 277,63.6 	"/>
</g>
</svg>
