<svg version="1.1" id="Plan_1" xmlns="http://www.w3.org/2000/svg" x="0" y="0" viewBox="0 0 311.4 226.8" xml:space="preserve"><style>.st0,.st8{fill-rule:evenodd;clip-rule:evenodd;fill:#d53b29}.st8{fill:#ba3a28}</style><path class="st0" d="M34.5 44.8v182H20.2C9.1 226.8 0 217.7 0 206.6V18.8l34.5 26zM277 44.8v182h14.3c11.1 0 20.2-9.1 20.2-20.2V18.8l-34.5 26z"/><path fill-rule="evenodd" clip-rule="evenodd" fill="#eeefef" d="M185.8 226.8H34.5l90.3-65.8-90.3 65.8 90.3-65.8z"/><path fill-rule="evenodd" clip-rule="evenodd" fill="#b4a4a3" d="M34.5 50.1l121.2 84 121.3-84v1.1l-121.3 87.3L34.5 51.2z"/><path fill-rule="evenodd" clip-rule="evenodd" fill="#cccfcf" d="M155.7 138.5l-120.8-87-.4-.3v12.4l.4.5 89.9 96.9z"/><path fill-rule="evenodd" clip-rule="evenodd" fill="#e0e2e3" d="M34.5 226.8l90.3-65.8-90.3-97.4z"/><path fill-rule="evenodd" clip-rule="evenodd" fill="#e4e4e4" d="M185.8 226.8H277V51.2l-121.3 87.3-30.9 22.5z"/><path fill-rule="evenodd" clip-rule="evenodd" fill="#f3f3f3" d="M16.8 0h278.6L155.7 92.1z"/><path d="M27 3l128.7 89.1L284.4 3c7.8-5.4 18.6-3.4 24 4.4 2.2 3.2 3.2 6.8 3 10.4v8.6c-2.4 1.8-5 3.3-7.4 5L155.7 134.1 7.4 31.4c-2.4-1.7-5-3.2-7.4-5v-8.6c-.1-3.6.8-7.3 3-10.4C8.4-.4 19.2-2.3 27 3z" fill-rule="evenodd" clip-rule="evenodd" fill="#e04c3b"/><path class="st8" d="M34.5 50.1L0 26.4l34.5 37.2zM277 50.1l34.4-23.7L277 63.6z"/></svg>