<?xml version="1.0" encoding="utf-8"?>
<!-- Generator: Adobe Illustrator 23.1.0, SVG Export Plug-In . SVG Version: 6.00 Build 0)  -->
<svg version="1.1" id="Слой_1" xmlns="http://www.w3.org/2000/svg" xmlns:xlink="http://www.w3.org/1999/xlink" x="0px" y="0px"
	 viewBox="0 0 200.5 200" style="enable-background:new 0 0 200.5 200;" xml:space="preserve">
<style type="text/css">
	.st0{clip-path:url(#SVGID_5_);}
	.st1{clip-path:url(#SVGID_6_);}
	.st2{clip-path:url(#SVGID_7_);}
	.st3{clip-path:url(#SVGID_8_);}
	.st4{clip-path:url(#SVGID_11_);}
	.st5{clip-path:url(#SVGID_12_);fill:#FFFFFF;}
	.st6{clip-path:url(#SVGID_15_);}
	.st7{clip-path:url(#SVGID_16_);fill:#FFFFFF;}
</style>
<g>
	<g>
		<defs>
			<rect id="SVGID_1_" x="0.5" width="200" height="200"/>
		</defs>
		<defs>
			<path id="SVGID_2_" d="M100.5,200c55.2,0,100-44.8,100-100S155.7,0,100.5,0S0.5,44.8,0.5,100S45.3,200,100.5,200L100.5,200z
				 M100.5,200"/>
		</defs>
		<defs>
			<path id="SVGID_3_" d="M-473.5-2550h2000v6680h-2000V-2550z M-473.5-2550"/>
		</defs>
		<defs>
			<rect id="SVGID_4_" x="0.5" y="-592" width="612" height="792"/>
		</defs>
		<clipPath id="SVGID_5_">
			<use xlink:href="#SVGID_1_"  style="overflow:visible;"/>
		</clipPath>
		<clipPath id="SVGID_6_" class="st0">
			<use xlink:href="#SVGID_2_"  style="overflow:visible;"/>
		</clipPath>
		<clipPath id="SVGID_7_" class="st1">
			<use xlink:href="#SVGID_3_"  style="overflow:visible;"/>
		</clipPath>
		<clipPath id="SVGID_8_" class="st2">
			<use xlink:href="#SVGID_4_"  style="overflow:visible;"/>
		</clipPath>
		<rect x="-9.5" y="-10" class="st3" width="220" height="220"/>
	</g>
	<g>
		<defs>
			<rect id="SVGID_9_" x="0.5" width="200" height="200"/>
		</defs>
		<defs>
			<path id="SVGID_10_" d="M56.4,52.9v34c5.2-6.2,11.4-9.3,18.6-9.3c3.7,0,7,0.7,10,2.1c3,1.4,5.2,3.2,6.7,5.4
				c1.5,2.2,2.5,4.6,3.1,7.3c0.6,2.6,0.8,6.7,0.8,12.3V141H79.5v-32.8c0-6.5-0.3-10.6-0.9-12.4c-0.6-1.8-1.7-3.1-3.2-4.2
				c-1.5-1-3.5-1.6-5.8-1.6c-2.7,0-5.1,0.7-7.1,2c-2.1,1.3-3.7,3.3-4.6,6c-1,2.7-1.5,6.6-1.5,11.8l0,31.1H40.3V52.9H56.4"/>
		</defs>
		<clipPath id="SVGID_11_">
			<use xlink:href="#SVGID_9_"  style="overflow:visible;"/>
		</clipPath>
		<clipPath id="SVGID_12_" class="st4">
			<use xlink:href="#SVGID_10_"  style="overflow:visible;"/>
		</clipPath>
		<rect x="30.3" y="42.9" class="st5" width="75.3" height="108.1"/>
	</g>
	<g>
		<defs>
			<rect id="SVGID_13_" x="0.5" width="200" height="200"/>
		</defs>
		<defs>
			<path id="SVGID_14_" d="M119.7,52.9v34c5.2-6.2,11.4-9.3,18.6-9.3c3.7,0,7,0.7,10,2.1c3,1.4,5.2,3.2,6.7,5.4
				c1.5,2.2,2.5,4.6,3.1,7.3c0.6,2.6,0.8,6.7,0.8,12.3V141h-16.1v-32.8c0-6.5-0.3-10.6-0.9-12.4c-0.6-1.8-1.7-3.1-3.2-4.2
				c-1.5-1-3.5-1.6-5.8-1.6c-2.7,0-5.1,0.7-7.1,2c-2.1,1.3-3.6,3.3-4.6,6c-1,2.7-1.5,6.6-1.5,11.8V141h-16.1V52.9H119.7"/>
		</defs>
		<clipPath id="SVGID_15_">
			<use xlink:href="#SVGID_13_"  style="overflow:visible;"/>
		</clipPath>
		<clipPath id="SVGID_16_" class="st6">
			<use xlink:href="#SVGID_14_"  style="overflow:visible;"/>
		</clipPath>
		<rect x="93.7" y="42.9" class="st7" width="75.3" height="108.1"/>
	</g>
</g>
</svg>
