<svg xmlns="http://www.w3.org/2000/svg" viewBox="0 0 533.8 533.8"><linearGradient id="a" gradientUnits="userSpaceOnUse" x1="266.881" y1="0" x2="266.881" y2="531.816"><stop offset="0" stop-color="#42bde9"/><stop offset="1" stop-color="#23a8dd"/></linearGradient><circle cx="266.9" cy="266.9" r="266.9" fill="url(#a)"/><path d="M396.7 153.5L349 393.8s-6.7 16.7-25 8.7l-110-84.3-40-19.3-67.3-22.7s-10.3-3.7-11.3-11.7c-1-8 11.7-12.3 11.7-12.3l267.7-105c-.1 0 21.9-9.7 21.9 6.3z" fill="#fff"/><path d="M205.6 391.2s-3.2-.3-7.2-13-24.3-79.3-24.3-79.3l161.7-102.7s9.3-5.7 9 0c0 0 1.7 1-3.3 5.7s-127 114.3-127 114.3" fill="#d3e6f2"/><path d="M256.3 350.5l-43.5 39.7s-3.4 2.6-7.1 1l8.3-73.7" fill="#b6d0e5"/></svg>