<?xml version="1.0" encoding="utf-8"?>
<!-- Generator: Adobe Illustrator 23.1.0, SVG Export Plug-In . SVG Version: 6.00 Build 0)  -->
<svg version="1.1" id="Слой_1" xmlns="http://www.w3.org/2000/svg" xmlns:xlink="http://www.w3.org/1999/xlink" x="0px" y="0px"
	 viewBox="0 0 533.8 533.8" style="enable-background:new 0 0 533.8 533.8;" xml:space="preserve">
<style type="text/css">
	.st0{fill:#EFF0F4;}
	.st1{fill:#666666;}
	.st2{fill:#4F4F4F;}
	.st3{fill:#3F3F3F;}
</style>
<circle class="st0" cx="266.9" cy="266.9" r="266.9"/>
<path class="st1" d="M396.7,120.6L349,360.9c0,0-6.7,16.7-25,8.7l-110-84.3L174,266l-67.3-22.7c0,0-10.3-3.7-11.3-11.7
	s11.7-12.3,11.7-12.3l267.7-105C374.7,114.3,396.7,104.6,396.7,120.6L396.7,120.6z"/>
<path class="st2" d="M205.6,358.3c0,0-3.2-0.3-7.2-13S174.1,266,174.1,266l161.7-102.7c0,0,9.3-5.7,9,0c0,0,1.7,1-3.3,5.7
	s-127,114.3-127,114.3"/>
<path class="st3" d="M256.3,317.6l-43.5,39.7c0,0-3.4,2.6-7.1,1l8.3-73.7"/>
</svg>
