<?xml version="1.0" encoding="utf-8"?>
<!-- Generator: Adobe Illustrator 23.1.0, SVG Export Plug-In . SVG Version: 6.00 Build 0)  -->
<svg version="1.1" id="Layer_1" xmlns="http://www.w3.org/2000/svg" xmlns:xlink="http://www.w3.org/1999/xlink" x="0px" y="0px"
	 viewBox="0 0 533.8 533.8" style="enable-background:new 0 0 533.8 533.8;" xml:space="preserve">
<style type="text/css">
	.st0{fill:#010202;}
	.st1{fill:#FFFFFF;}
	.st2{fill:#D3E6F2;}
	.st3{fill:#B6D0E5;}
</style>
<g>
	
		<ellipse transform="matrix(0.7071 -0.7071 0.7071 0.7071 -110.5462 266.8813)" class="st0" cx="266.9" cy="266.9" rx="266.9" ry="266.9"/>
	<g>
		<path class="st1" d="M395.2,145.9l-47.7,240.3c0,0-6.7,16.7-25,8.7l-110-84.3l-40-19.3l-67.3-22.7c0,0-10.3-3.7-11.3-11.7
			c-1-8,11.7-12.3,11.7-12.3l267.7-105C373.2,139.6,395.2,129.9,395.2,145.9z"/>
		<path class="st2" d="M204.1,383.5c0,0-3.2-0.3-7.2-13c-4-12.7-24.3-79.3-24.3-79.3l161.7-102.7c0,0,9.3-5.7,9,0c0,0,1.7,1-3.3,5.7
			c-5,4.7-127,114.3-127,114.3"/>
		<path class="st3" d="M254.8,342.9l-43.5,39.7c0,0-3.4,2.6-7.1,1l8.3-73.7"/>
	</g>
</g>
</svg>
